<?xml version="1.0" encoding="UTF-8" standalone="no"?>
<!DOCTYPE svg PUBLIC "-//W3C//DTD SVG 1.1//EN" "http://www.w3.org/Graphics/SVG/1.1/DTD/svg11.dtd">
<svg width="100%" height="100%" viewBox="0 0 2380 475" version="1.1" xmlns="http://www.w3.org/2000/svg" xmlns:xlink="http://www.w3.org/1999/xlink" xml:space="preserve" xmlns:serif="http://www.serif.com/" style="fill-rule:evenodd;clip-rule:evenodd;stroke-linejoin:round;stroke-miterlimit:2;">
    <g transform="matrix(4.16667,0,0,4.16667,0,0)">
        <g transform="matrix(1,0,0,1,-49.9879,0.0103081)">
            <path d="M199.155,62.945L199.155,34.83C204.466,34.83 210.705,34.097 216.626,35.149C219.448,35.651 223.663,39.466 223.763,41.921C224.004,47.87 226.221,54.208 221.671,60.162C220.276,61.988 222.513,66.698 223.286,70.04C223.927,72.811 224.861,75.514 225.837,78.829L214.161,78.829C214.161,74.868 214.623,70.952 214.043,67.196C213.322,62.522 212.95,62.58 207,63.372C207.535,68.452 208.072,73.552 208.64,78.94L198.008,78.94C198.392,73.755 198.773,68.596 199.155,62.945M216.176,49.364C216.159,41.961 216.015,41.861 207.483,43.415L207.483,54.904C211.032,53.934 216.381,57.679 216.176,49.364Z" style="fill:white;fill-rule:nonzero;"/>
        </g>
        <g transform="matrix(1,0,0,1,-50.348,0.167062)">
            <path d="M193.387,79.301C185.725,79.98 188.815,73.367 186.446,70.284C179.259,68.243 178.919,68.503 175.69,78.956L167.446,78.956C168.827,72.632 170.157,66.651 171.434,60.659C172.506,55.627 173.586,50.595 174.5,45.533C174.712,44.361 174.263,43.07 173.879,41.421C173.753,39.186 173.867,37.364 174.004,35.189L189.307,35.189C190.91,45.466 192.423,55.603 194.104,65.711C194.692,69.247 195.904,72.689 196.353,76.234C196.463,77.102 194.689,78.208 193.387,79.301M184.621,61.069C184.043,57.51 183.466,53.952 182.888,50.393C182.503,50.405 182.119,50.416 181.734,50.428C181.042,53.919 180.349,57.41 179.542,61.479C181.379,61.479 182.657,61.479 184.621,61.069Z" style="fill:white;fill-rule:nonzero;"/>
        </g>
        <g transform="matrix(1,0,0,1,-49.9879,0.0103081)">
            <path d="M264.618,34.702C269.428,34.613 273.827,34.613 278.532,34.613L278.532,43.738C277.332,43.831 276.09,43.927 274.422,44.097C271.183,43.633 268.371,43.096 265.22,42.493L265.22,52.919L274.895,52.919L274.895,60.918L265.286,60.918L265.286,71.225C269.625,70.684 273.876,70.155 278.524,69.576L278.524,78.769L256.236,78.769L256.236,34.791C258.656,34.791 261.432,34.791 264.618,34.702Z" style="fill:white;fill-rule:nonzero;"/>
        </g>
        <g transform="matrix(1,0,0,1,-49.9879,0.0103081)">
            <path d="M250.866,64.992C254.931,68.869 252.676,76.542 247.233,78.916C243.009,80.758 232.153,78.8 229.322,75.361C228.18,73.975 227.286,71.936 227.245,70.171C227.036,61.366 227.111,52.554 227.161,43.745C227.192,38.256 230.509,34.903 235.838,34.819C237.5,34.792 239.21,35.069 240.817,34.771C249.024,33.248 255.243,40.213 252.56,48.782L245.186,48.782C244.614,46.174 246.151,42.533 240.99,42.681C236.53,42.809 234.723,43.758 235.086,48.537C235.514,54.156 235.212,59.833 235.176,65.484C235.157,68.528 234.655,71.36 239.504,71.298C243.822,71.243 245.867,70.123 244.832,64.986C246.871,64.986 248.639,64.986 250.866,64.992Z" style="fill:white;fill-rule:nonzero;"/>
        </g>
        <g transform="matrix(1,0,0,1,-49.9879,0.0103081)">
            <path d="M282.689,57.461C282.222,49.9 281.845,42.795 281.45,35.346L291.426,35.346L291.426,71.052C294.928,70.585 298.661,70.086 302.836,69.528L302.836,78.846C301.67,78.954 300.279,79.083 298.441,79.307C292.704,79.402 287.414,79.402 281.717,79.402C282.089,71.88 282.434,64.899 282.689,57.461Z" style="fill:white;fill-rule:nonzero;"/>
        </g>
        <g transform="matrix(1,0,0,1,-49.9879,0.0103081)">
            <path d="M433.299,64.623C432.916,66.622 432.491,68.228 432.159,69.854C430.052,80.171 430.059,80.172 419.113,78.722C416.946,67.949 414.836,57.052 412.486,46.208C412.126,44.541 410.663,43.114 409.71,41.576C409.313,41.841 408.916,42.106 408.519,42.37L408.519,78.927L398.07,78.927C398.694,75.551 399.748,72.569 399.698,69.606C399.54,60.046 398.844,50.495 398.669,40.935C398.63,38.822 396.474,35.285 401.545,34.698C405.83,34.736 409.679,35.128 413.494,34.917C417.089,34.717 418.833,35.655 419.46,39.546C420.719,47.361 422.573,55.08 425.277,62.944C427.213,53.685 429.149,44.426 431.113,35.031L439.457,35.031C437.382,44.872 435.34,54.555 433.299,64.623Z" style="fill:white;fill-rule:nonzero;"/>
        </g>
        <g transform="matrix(1,0,0,1,-49.9879,0.0103081)">
            <path d="M498.535,34.689C506.528,39.759 508.698,51.29 503.593,59.031C501.863,61.655 504.021,69.365 507.629,72.496C508.009,74.887 508.005,76.86 508.001,78.832L496.241,78.832C495.95,73.771 495.648,68.524 495.335,63.089L488.698,63.089C489.221,68.213 489.741,73.311 490.302,78.812L480.139,78.812L480.139,34.776C485.926,34.776 492,34.776 498.535,34.689M496.773,54.397C496.892,50.774 497.501,47.047 496.765,43.606C496.594,42.807 491.844,42.987 489.214,42.718L489.214,54.745C491.723,54.745 493.845,54.745 496.773,54.397Z" style="fill:white;fill-rule:nonzero;"/>
        </g>
        <g transform="matrix(1,0,0,1,-49.9879,0.0103081)">
            <path d="M508.422,78.977C508.005,76.86 508.009,74.887 508.016,72.492C511.114,60.058 515.195,48.197 513.031,35.146L529.28,35.146C529.947,41.697 530.597,48.081 531.465,54.777C533.239,62.891 534.796,70.692 536.434,78.897L528.223,78.897C527.85,77.511 527.286,76.129 527.133,74.702C526.785,71.438 526.07,69.375 521.833,69.352C517.785,69.33 516.383,71.095 516.365,74.396C516.333,80.2 512.442,79.302 508.422,78.977M520.424,54.052C520.006,56.394 519.588,58.735 519.097,61.482C521.091,61.388 522.487,61.322 524.397,61.231C523.639,57.555 522.972,54.321 522.305,51.087C522.007,51.104 521.709,51.122 521.411,51.139C521.155,51.858 520.9,52.576 520.424,54.052Z" style="fill:white;fill-rule:nonzero;"/>
        </g>
        <g transform="matrix(1,0,0,1,-49.9879,0.0103081)">
            <path d="M456.429,79.306C450.977,79.398 445.96,79.398 439.928,79.398C440.655,75.572 441.209,72.656 441.683,69.373C441.602,57.836 441.602,46.668 441.602,35.152L463.266,35.152L463.266,44.222C458.826,43.721 454.679,43.252 450.175,42.744L450.175,52.787L459.675,52.787L459.675,60.843L450.186,60.843L450.186,71.156C454.435,70.664 458.669,70.173 463.249,69.642L463.249,79.214C461.046,79.214 458.955,79.214 456.429,79.306Z" style="fill:white;fill-rule:nonzero;"/>
        </g>
        <g transform="matrix(1,0,0,1,-49.9879,0.0103081)">
            <path d="M475.588,60.974C476.001,67.184 476.414,72.898 476.85,78.924L466.76,78.924L466.76,35.091L475.589,35.091C475.589,43.748 475.589,52.113 475.588,60.974Z" style="fill:white;fill-rule:nonzero;"/>
        </g>
        <g transform="matrix(1,0,0,1,-49.9879,0.0103081)">
            <path d="M368.154,76.664C362.774,80.855 351.552,80.135 347.351,75.379C346.085,73.947 345.173,71.718 345.093,69.812C344.815,63.195 344.973,56.56 344.896,49.467C345.167,45.934 344.609,42.346 346.022,39.895C349.737,33.452 363.615,32.414 368.652,37.923C369.955,39.348 371.015,41.576 371.067,43.466C371.315,52.442 371.345,61.434 371.043,70.406C370.976,72.407 369.262,74.352 368.154,76.664M363.153,47.648C363.044,46.212 362.936,44.776 362.815,43.171C361.337,43.043 360.2,43.01 359.086,42.837C354.509,42.126 352.442,43.621 352.91,48.655C353.354,53.423 353.005,58.264 353.005,63.073C353.004,71.785 353.004,71.789 361.878,70.932C362.156,70.906 362.406,70.589 363.153,70.073C363.153,63.145 363.153,55.884 363.153,47.648Z" style="fill:white;fill-rule:nonzero;"/>
        </g>
        <g transform="matrix(1,0,0,1,-49.9879,0.0103081)">
            <path d="M395.851,73.136C395.852,75.227 395.852,76.857 395.852,78.833L374.569,78.833L374.569,35.171L384.018,35.171L384.018,71.247C385.497,70.891 387.29,70.029 389.014,70.149C391.432,70.317 395.26,67.424 395.851,73.136Z" style="fill:white;fill-rule:nonzero;"/>
        </g>
        <g transform="matrix(1,0,0,1,-49.9879,0.0103081)">
            <path d="M332.181,59.988C332.181,63.309 332.19,66.132 332.179,68.956C332.155,75.348 328.25,79.321 321.739,79.128C316.996,78.987 311.531,80.935 308.206,75.543C307.235,73.969 306.133,72.129 306.092,70.388C305.881,61.258 305.97,52.12 306,42.986C306.016,38.297 309.132,35.054 313.89,34.847C316.874,34.718 319.869,34.795 322.858,34.825C328.127,34.876 332.131,38.82 332.172,44.045C332.213,49.194 332.181,54.343 332.181,59.988M324.15,47.649C324.042,46.213 323.935,44.777 323.814,43.17C322.333,43.043 321.199,43.012 320.086,42.839C315.508,42.129 313.531,43.628 313.902,48.658C314.352,54.759 314.227,60.93 313.931,67.051C313.739,71.009 315.77,71.282 318.797,71.206C321.755,71.132 324.438,71.496 324.224,67.024C323.931,60.903 324.151,54.758 324.15,47.649Z" style="fill:white;fill-rule:nonzero;"/>
        </g>
        <g transform="matrix(1,0,0,1,-48.9227,-0.136756)">
            <path d="M134.988,68.719C134.989,62.753 135.136,57.259 134.948,51.777C134.763,46.372 134.239,40.978 133.865,35.598C141.916,33.505 143.064,34.044 145.996,41.155C147.096,43.822 148.235,46.473 149.839,50.278C151.58,46.687 152.828,44.216 153.986,41.705C157.618,33.824 157.605,33.818 166.021,35.306L166.021,78.908L156.022,78.908C156.483,72.18 156.945,65.427 157.472,57.731C154.079,60.618 155.034,67.218 149.645,65.283C147.012,64.337 145.295,60.837 142.722,58.007C143.268,64.85 143.819,71.755 144.391,78.916L133.477,78.916C134.008,75.497 134.497,72.347 134.988,68.719Z" style="fill:white;fill-rule:nonzero;"/>
        </g>
    </g>
</svg>
